<?xml version="1.0" encoding="UTF-8" standalone="no"?>
<svg width="273px" height="153px" viewBox="0 0 273 153" version="1.1" xmlns="http://www.w3.org/2000/svg" xmlns:xlink="http://www.w3.org/1999/xlink" xmlns:sketch="http://www.bohemiancoding.com/sketch/ns">
    <!-- Generator: Sketch 3.3.2 (12043) - http://www.bohemiancoding.com/sketch -->
    <title>frog-stay</title>
    <desc>Created with Sketch.</desc>
    <defs></defs>
    <g id="Page-1" stroke="none" stroke-width="1" fill="none" fill-rule="evenodd" sketch:type="MSPage">
        <g id="frog-stay" sketch:type="MSLayerGroup">
            <g id="body" sketch:type="MSShapeGroup">
                <path d="M60.7382842,60.3046857 C88.7926415,74.2572887 31.6132844,94.6523419 67.4882844,112.761717 C99.6782341,129.010912 272.576167,110.115236 272.576167,98.4980482 C272.576167,35.3468571 116.839092,67.0857332 112,38.015328 C105.710941,0.234375002 64.4999992,-9.50361161 44.4999992,10.5117189 C32.8744714,22.1461579 0.671644889,-8.88251688 0.640625002,29.5664064 C0.62663979,46.900975 32.4788083,46.2500687 60.7382842,60.3046857 Z" id="Oval-1" fill="#019528"></path>
                <ellipse id="Oval-2" fill="#261900" cx="72" cy="27.5" rx="15" ry="13.5"></ellipse>
            </g>
            <g id="legs" transform="translate(23.000000, 86.000000)" fill="#019528" sketch:type="MSShapeGroup">
                <path d="M32.3288652,9.59195916 L67.2468339,21.9591467 C67.2468339,21.9591467 12.2175366,62.8849279 2.32886518,56.5919592 C-7.55980626,50.2989904 32.3288652,9.59195916 32.3288652,9.59195916 Z" id="Triangle-1"></path>
                <path d="M65.5756991,16.5919592 L100.493668,28.9591467 C100.493668,28.9591467 45.4643705,69.8849279 35.5756991,63.5919592 C25.6870277,57.2989904 65.5756991,16.5919592 65.5756991,16.5919592 Z" id="Triangle-1-Copy"></path>
                <path d="M170.328865,11.941201 L218.888675,11.941201 C218.888675,11.941201 166.576171,70.0663613 156.6875,63.7733925 C146.798828,57.4804238 170.328865,11.941201 170.328865,11.941201 Z" id="Triangle-1-Copy-2"></path>
                <path d="M202.570313,11.941201 L218.021484,0.345702951 C218.021484,0.345702951 245.918907,10.1609737 243.508421,14.0062404 C233.475463,30.0110649 206.807068,70.8297845 198.833984,65.7558602 C188.945313,59.4628914 202.570313,11.941201 202.570313,11.941201 Z" id="Triangle-1-Copy-3"></path>
            </g>
        </g>
    </g>
</svg>