<?xml version="1.0" encoding="UTF-8" standalone="no"?>
<svg width="277px" height="183px" viewBox="0 0 277 183" version="1.1" xmlns="http://www.w3.org/2000/svg" xmlns:xlink="http://www.w3.org/1999/xlink" xmlns:sketch="http://www.bohemiancoding.com/sketch/ns">
    <!-- Generator: Sketch 3.3.2 (12043) - http://www.bohemiancoding.com/sketch -->
    <title>frog-run</title>
    <desc>Created with Sketch.</desc>
    <defs></defs>
    <g id="Page-1" stroke="none" stroke-width="1" fill="none" fill-rule="evenodd" sketch:type="MSPage">
        <g id="frog-run" sketch:type="MSLayerGroup">
            <g id="body" sketch:type="MSShapeGroup">
                <path d="M60.7382842,60.3046857 C88.7926415,74.2572887 28.0351555,88.5429701 63.9101555,106.652345 C96.1001052,122.90154 269.027339,142.193353 269.027339,130.576166 C269.027339,67.4249745 116.839092,67.0857332 112,38.015328 C105.710941,0.234375002 64.4999992,-9.50361161 44.4999992,10.5117189 C32.8744714,22.1461579 0.671644889,-8.88251688 0.640625002,29.5664064 C0.62663979,46.900975 32.4788083,46.2500687 60.7382842,60.3046857 Z" id="Oval-1" fill="#019528"></path>
                <ellipse id="Oval-2" fill="#261900" cx="72" cy="27.5" rx="15" ry="13.5"></ellipse>
            </g>
            <g id="legs" transform="translate(23.000000, 95.000000)" fill="#019528" sketch:type="MSShapeGroup">
                <g id="front-leg-right">
                    <path d="M32.3288652,0.591959163 L67.2468339,12.9591467 C67.2468339,12.9591467 12.2175366,53.8849279 2.32886518,47.5919592 C-7.55980626,41.2989904 32.3288652,0.591959163 32.3288652,0.591959163 Z" id="Triangle-1"></path>
                </g>
                <g id="front-leg-left" transform="translate(34.000000, 7.000000)">
                    <path d="M31.5756991,0.591959163 L66.4936679,12.9591467 C66.4936679,12.9591467 11.4643705,53.8849279 1.57569911,47.5919592 C-8.31297233,41.2989904 31.5756991,0.591959163 31.5756991,0.591959163 Z" id="Triangle-1-Copy"></path>
                </g>
                <g id="hind-leg-left" transform="translate(147.000000, 23.000000)">
                    <path d="M0.542968877,3.44710866 L50.8066408,0.015468038 C50.8066408,0.015468038 70.3613283,53.6541406 58.8398431,63.5291406 C47.318358,73.4041406 0.542968877,3.44710866 0.542968877,3.44710866 Z" id="Triangle-1-Copy-2"></path>
                </g>
                <g id="hind-leg-right" transform="translate(192.000000, 14.000000)">
                    <path d="M0.250000259,9.34427682 L24.4726565,1.72708913 C24.4726565,1.72708913 36.4126322,-4.30806702 50.9726565,9.34427656 C60.6953128,34.4341928 65.5351565,65.5727909 56.3750003,68.0044315 C45.5810906,70.8697657 0.250000259,9.34427682 0.250000259,9.34427682 Z" id="Triangle-1-Copy-3"></path>
                </g>
            </g>
        </g>
    </g>
</svg>