<?xml version="1.0" encoding="UTF-8" standalone="no"?>
<svg width="277px" height="183px" viewBox="0 0 277 183" version="1.1" xmlns="http://www.w3.org/2000/svg" xmlns:xlink="http://www.w3.org/1999/xlink" xmlns:sketch="http://www.bohemiancoding.com/sketch/ns">
    <!-- Generator: Sketch 3.3.2 (12043) - http://www.bohemiancoding.com/sketch -->
    <title>frog-run</title>
    <desc>Created with Sketch.</desc>
    <defs></defs>
    <g id="Page-1" stroke="none" stroke-width="1" fill="none" fill-rule="evenodd" sketch:type="MSPage">
        <g id="frog-run" sketch:type="MSLayerGroup">
            <g id="body" sketch:type="MSShapeGroup">
                <path d="M60.7382842,60.3046857 C88.7926415,74.2572887 28.0351555,88.5429701 63.9101555,106.652345 C96.1001052,122.90154 269.027339,142.193353 269.027339,130.576166 C269.027339,67.4249745 116.839092,67.0857332 112,38.015328 C105.710941,0.234375002 64.4999992,-9.50361161 44.4999992,10.5117189 C32.8744714,22.1461579 0.671644889,-8.88251688 0.640625002,29.5664064 C0.62663979,46.900975 32.4788083,46.2500687 60.7382842,60.3046857 Z" id="Oval-1" fill="#019528"></path>
                <ellipse id="Oval-2" fill="#261900" cx="72" cy="27.5" rx="15" ry="13.5"></ellipse>
            </g>
            <g id="legs" transform="translate(23.000000, 95.000000)" fill="#019528" sketch:type="MSShapeGroup">
                <path d="M32.3288652,0.591959163 L67.2468339,12.9591467 C67.2468339,12.9591467 12.2175366,53.8849279 2.32886518,47.5919592 C-7.55980626,41.2989904 32.3288652,0.591959163 32.3288652,0.591959163 Z" id="Triangle-1"></path>
                <path d="M65.5756991,7.59195916 L100.493668,19.9591467 C100.493668,19.9591467 45.4643705,60.8849279 35.5756991,54.5919592 C25.6870277,48.2989904 65.5756991,7.59195916 65.5756991,7.59195916 Z" id="Triangle-1-Copy"></path>
                <path d="M147.542969,26.4471087 L197.806641,23.015468 C197.806641,23.015468 217.361328,76.6541406 205.839843,86.5291406 C194.318358,96.4041406 147.542969,26.4471087 147.542969,26.4471087 Z" id="Triangle-1-Copy-2"></path>
                <path d="M192.25,23.3442768 L216.472657,15.7270891 C216.472657,15.7270891 228.412632,9.69193298 242.972657,23.3442766 C252.695313,48.4341928 257.535157,79.5727909 248.375,82.0044315 C237.581091,84.8697657 192.25,23.3442768 192.25,23.3442768 Z" id="Triangle-1-Copy-3"></path>
            </g>
        </g>
    </g>
</svg>